<svg width="641" height="661" viewBox="0 0 641 661" fill="none" xmlns="http://www.w3.org/2000/svg">
<path d="M589.922 348.898V226.025L340.671 360.636V483.508L589.922 348.898Z" stroke="white" stroke-width="1.41774"/>
<path d="M524.621 12.7085L273.117 148.52V273.404L524.621 137.592V12.7085Z" fill="#002A7B"/>
<path d="M640.765 74.5401L389.26 210.351V335.235L640.765 199.424V74.5401Z" fill="#F4CA15"/>
<path d="M273.117 147.965L524.621 283.776V408.66L273.117 272.849V147.965Z" fill="#E70B3D"/>
<path d="M1.4325 125.367V2.09254L252.354 137.141V260.415L1.4325 125.367Z" stroke="white" stroke-width="1.41774"/>
<path d="M339.127 359.362L589.796 495.173V620.057L339.127 484.246" stroke="white" stroke-width="1.41774"/>
<path d="M89.2935 101.173L339.126 236.55V361.033L89.2935 225.657V101.173Z" fill="white"/>
<path d="M339.127 235.699L89.2939 371.075V495.559L339.127 360.183V235.699Z" fill="#00966E"/>
<path d="M263.09 401.14L13.2573 536.516V661L263.09 525.624V401.14Z" fill="#E70B3D"/>
</svg>
