<?xml version="1.0" encoding="UTF-8"?>
<svg id="Layer_2" data-name="Layer 2" xmlns="http://www.w3.org/2000/svg" viewBox="0 0 768.01 223.51">
  <defs>
    <style>
      .cls-1 {
        fill: #f05249;
      }

      .cls-2 {
        fill: #f04e45;
      }

      .cls-3 {
        fill: #fff;
      }

      .cls-4 {
        fill: none;
      }

      .cls-5 {
        fill: #f04c45;
      }

      .cls-6 {
        fill: #f04f46;
      }

      .cls-7 {
        fill: #f04e46;
      }

      .cls-8 {
        fill: #f04d45;
      }

      .cls-9 {
        fill: #f05349;
      }

      .cls-10 {
        fill: #f0534b;
      }

      .cls-11 {
        fill: #f0544d;
      }
    </style>
  </defs>
  <g id="Layer_2-2" data-name="Layer 2">
    <g>
      <path class="cls-4" d="M0,57.87V0h768v223.5h-108.43c7.49-3.07,12.45-9.79,10.35-18.07-.29-1.13-1.17-2-1.34-3.17-.58-4.08,1.26-3.35,3.22-5.21,1.6-1.53,2.68-3.35,4.25-4.73,5.35-4.69,9.54-.43,15.7-1.29,4.49-.62,9.9-5.28,10.67-9.8.62-3.66-.93-6.88-.16-10.64.83-4.06,8.75-12.5,13.02-12.48,5.54.02,8.64,1.97,13.99-1.96,8.95-6.57,2.09-17.42,13-25.93,6.67-5.2,11.33-2.49,17.18-5.3,10.28-4.94,10.66-20.06.7-25.55-5.75-3.17-8.46-.13-13.78-1.21-3.71-.75-10.98-8.04-11.74-11.72-.61-2.95.69-5.83.39-8.87-.71-7.21-7.28-11.98-14.22-12.25-1.5-.06-2.88.46-4.01.43-5.43-.14-11.56-5.55-13.34-10.53-2.04-5.71.88-9.64-2.99-15.97-5.98-9.75-13.91-3.15-21.07-7.4-1.89-1.12-9.02-8.43-9.6-10.38s.38-4.05.3-6.27c-.38-10.28-9.98-18.16-19.85-13.3-4.98,2.45-6.26,7.32-8.98,11.48l-17.16.08c-.29-.15-1.4.25-1.9-.08-.2-.13-1.39-3.39-1.97-4.28-4.75-7.25-14.67-7.61-19.33-.1-1.18,1.9-1.31,4.72-4.13,5.35-1.23.27-11.39.34-12.31.03-2.89-5.1-7.1-9.78-13.5-6.83-7.06,3.25-5.08,15.36,2.93,15.93,6.02.43,9-7.71,17.98-7.01,8.32.65,8.3,6.42,14.07,8.9,8.46,3.63,12.59-1.77,16.41-8.41h12.99c.17,0,.84.47,1.48.52,1.57.12,3.19-.11,4.77-.02,4.05,7.6,6.15,12.77,16.2,11.43,2.72-.36,7.29-3.34,9.78-2.19.53.24,7.62,7.42,8.21,8.27,3.41,4.9-1.19,5.63-1.79,10.34-5.46.97-11.31,2.82-16.75.69-4.99-1.96-4.65-6.3-8.47-8.51s-10.28-1.77-13.62,1.22c-1.13,1.02-4.26,6.3-4.55,7.68-4.17-.49-8.08,1.34-12.11-.13-3.37-1.23-4.26-4.96-7.03-6.46-8.95-4.83-17.45,7.41-9.11,14.08,5.98,4.79,10.28.38,14.09-4.42l14.16-.08c.24.88,4.29,6.24,5.25,6.98,5.93,4.56,11.82,2.46,16.23-2.75,1.36-1.61,1.65-4.01,3.73-4.26,3.02-.36,10.96-.32,14.02.03,5.78.65,5.66,5.66,9.5,8.97s8.11,3.99,12.73,2.76c2.09-.56,5.52-3.01,7-2.55s9.81,9.25,10.28,10.76c.77,2.49-2.61,6.27-3.3,9l-19.44-.05c-1.86-10.65-15.76-13.8-21.44-4.09-.7,1.2-1.45,4.23-2.43,4.56h-13.84c-1-.33-1.85-6.39-7.18-7.28-12.8-2.15-14.14,15.76-2.88,16.84,5.12.49,7.56-2.23,9.58-6.51l14.32-.43c4.56,7.63,10.97,14.15,19.59,6.95,1.7-1.42,2.81-3.47,4.22-4.77,4.17-3.86,13.98-.79,19.5-1.73,1.26,3.72,6.55,10.49,10.35,11.87,6.85,2.48,10.76-2.83,15.15-1.66,2.54.68,3.12,2.74,4.72,4.27,2.72,2.61,6.44,4.12,4.88,8.83-2.46,7.4-17.39,7.65-22.58,3.36-1.37-1.13-1.93-3.38-3.25-4.74-4.47-4.61-13.67-3.45-17.17,1.85-.61.92-1.57,3.95-1.93,4.17-1.74,1.08-8.27,1.71-10.39,1.48-4.72-.51-5.66-3.52-8.77-5.71-9.02-6.32-16.81,5.03-11.46,11.94,4.73,6.11,11.45,2.59,14.84-2.75,4.33.27,9.05-.37,13.33.07,3.86.4,2.71,1.59,4.82,4.16,4.84,5.88,13.14,5.9,17.96,0,.76-.92,2.16-3.93,2.84-4.15,5.39.55,13.35-1.02,18.41-.08,2.27.42,4.36,7.92,3.37,10.35-.32.77-5.45,5.94-6.37,6.61-5.13,3.76-8.25-1.2-13.51-1.5-3.42-.2-7.55,1.66-9.92,4.05-2.99,3.01-3.82,8.7-8.59,9.38-3.2.45-5.98-.42-8.95-.5-1.92-.05-3.38,1.15-5.63.21-1.05-.44-2.22-3.71-3.11-4.77s-4.74-4.11-6.01-4.62c-5.06-2.02-9.49-.36-12.7,3.78-1.38,1.78-2.77,6-5.05,6.43s-9.51.13-11.59-.88c-4.04-1.97-4.21-8.31-10.25-7.49-11.75,1.59-10.38,17.75.85,17.38,4.48-.15,5.59-4.19,8.58-5.94,3.57-2.08,9.79-2.06,13.34,0,2.24,1.3,3.79,4.77,6.07,6.41,4.23,3.04,11.34,2.88,14.94-1.05,1.13-1.23,1.53-3.12,2.82-4.17,2.38-1.95,8.21-2.49,11.22-2.25,4.29.34,15.72,4.62,11.26,10.23-.65.82-6.82,6.55-7.76,7.22-4.37,3.14-6.2-.42-10.55-.94-10.57-1.26-12.94,6.39-17.68,13.67-.89.44-13.8.48-15.49.25-2.94-.4-3.38-3.65-5-5.74-3.71-4.78-9.07-7.37-14.66-3.66-3.15,2.09-5.85,7.68-9.2,8.28-3.52.64-8.14-.15-11.79.04-.93-.32-2.28-4.27-3.57-5.41-4.48-3.98-13.23-.68-13.77,5.22-.65,7.14,4.97,12.35,11.86,9.35,2.91-1.27,3.33-3.57,5.5-5.49,3.49.17,8.01-.59,11.37-.06,3.9.61,5.32,4.22,8.01,6.47,2.89,2.41,6.24,4.11,10.03,3,5.24-1.54,5.63-8.08,11.22-10,2.12-.73,13.45-.89,15.36-.12,5.19,2.09,2.66,8.57.12,11.83-8.49,10.86-16.06,1.55-24.64,7.33-2.21,1.49-6.68,8.42-6.83,10.89l-18.17-.07c-.58-.2-2.11-4.13-2.8-5.18-3.1-4.73-7.92-6.31-13.41-4.88s-6.53,9.87-10.06,10.42c-4.59-1.01-10.02,1.26-13.79-2.26-1.46-1.36-2.16-3.64-3.74-4.74-5.2-3.62-13.18,1.89-12.85,7.84.16,2.82,3.07,6.98,5.84,7.64,8.47,2.03,11.23-7.17,19.75-6.79,9.45.43,10.86,11.59,20.89,9.87,5.39-.92,7.94-8.01,11.22-8.75,4.77-1.07,12.52.58,17.63-.11,1.45,5.49,5.74,10.02,10.99,11.97H0V61.36l.54,1.69c.07,31.86-.33,63.79.2,95.61.64,1.59,1.2,2.66,3.04,2.95,11.31,1.78,10.38-3.48,10.23-12.71.49-20.94-2.42-45.17-.54-65.86.11-1.2.14-2.48,1.33-3.16l1.71.81,52.19,78.46c1.48,4.35,14.9,3.19,16,1,.95-1.89-.23-5.57-.28-7.72-.48-21.91-.19-44.45,0-66.4.07-8,1.22-16.38.54-24.44-.26-3.06-.83-5.65-4.3-6.19-3.77-.58-8.68-.42-9.17,4.25l-.02,74.31c.04,1.21-.31,2.42-1.27,3.21-1.32-1.2-2.31-2.7-3.36-4.12-17.69-23.86-32.75-50.96-50.1-75.2-1.57-1.85-4.62-3.02-7.01-3.02-2.58,0-8.27.77-9.74,3.03h0ZM349.19,54.03c-37.94,3.65-51.58,43.18-41.5,76.06,11.19,36.48,58.54,41.06,87.33,22.58,3.92-2.52,7.4-4.18,7.76-9.22.59-8.41.75-23.18,0-31.47-.13-1.43-.28-2.57-1.52-3.47l-40.25-.27c-4.52.25-4.24,10.41-.87,11.4,8.22.89,17.85-.83,25.89.09,3.92.45,3.98,4.52,4.23,7.75.55,7.08.25,12.3-6.03,16.41-9.95,6.51-25.51,9.34-37.03,6.63-41.38-9.74-37.49-78.58,3.47-85.53,11.13-1.89,25.82,2.09,32.82,11.38,1.96,2.61,4.35,10.48,6.76,11.23,1.62.51,9.57-1.97,9.94-3.11.96-2.93-4.28-12.92-6.22-15.58-9.77-13.41-29.19-16.36-44.78-14.86v-.02h0ZM258.47,85.92c-.9,1.88-1.16,6.63.35,8.14,2.03,2.03,7.74-1.26,8.49,3.5l.51,52.87c.78,10.48,11.38,12.93,20.25,12.2,2.37-.19,6-.44,6.25-3.28.09-.99-.6-5.47-1.06-6.37-1.93-3.83-8.74-.88-11.45-3.53-1.6-1.56-1.86-6.18-1.99-8.49-.65-11.04-.85-28.03,0-38.95.68-8.74,4.41-5.7,10.65-7.33,2.81-.73,3.05-5.75,2.1-7.86-1.51-3.36-9.55-.73-11.67-4.31-1.63-2.75-1.17-11.86-1.08-15.43.05-2.03,1.48-5.06-.2-6.74-3.15-3.15-9.13,4.05-11.94,5.63-1.05,5.14.27,11.02-.32,16.1-.62,5.33-5.77,1.6-8.88,3.85h0ZM171.78,139.32c-.64-.68-2.61-1.08-3.59-1.15-11.04-.82-10.69,8.76-18.6,12.91-14.38,7.55-29.48-2.67-32.89-17.37-.67-2.89-1.98-6.3,2.03-6.96h51.96c4.83-.62,3.12-11.07,2.39-14.42-8.87-40.82-63.81-38.1-69.56,2.73-3.19,22.66,4.77,44.5,29.72,48.02,14.57,2.05,29.13-2.55,36.57-15.75,1.09-1.94,3.76-6.09,1.96-8.01h.01ZM452.12,82.97c-51.59,3.93-42.3,91.97,10.7,80.02,9.07-2.04,16.61-6.41,21.47-14.48,3.59-5.96,6.35-11.47-3.78-10.26-8.39,1.01-8.88,9.54-15.96,13-11.07,5.42-25.41-.22-30.56-11.07-1.27-2.68-4.62-11.97-.79-13.24l53.23-.23c3.13-.59,2.45-6.6,2.28-9.24-1.22-19.54-16.14-36.06-36.6-34.5h0ZM556.29,161.01c.88.83,8.72.92,10.02.53,3.16-.95,1.36-10.16,1.33-12.6-.22-14.1,1.14-30.14.01-43.91-1.94-23.75-30.54-27.56-46.2-14.21l-4.26,4.47c-1.38-2.95.87-7.16-1.98-9.25-3.59-2.63-10.43-1.39-10.04,4,1.39,21.49-1.78,45.16,0,66.39.2,2.43.45,4.73,3.29,5.19,2.35.38,8.77.55,9.61-2.32.95-14.66-.91-30.27.08-44.82.48-7.05,2.62-13.25,8.85-17.1,11.56-7.15,26.9-3.25,28.16,11.62s-1.72,33.73-.03,48.92c.09.77.63,2.62,1.14,3.1h.02ZM182.9,161.14c9.09,2.19,14.89.55,19.89-7.33,3.64-5.75,7.92-14.57,12.39-19.56,1.93-2.16,2.45-2.17,4.41,0,3.08,3.41,7.27,10.8,9.99,14.97,3.77,5.77,5.32,12.18,13.6,12.87,1.17.1,7.52-.29,7.97-.9.54-.75.12-2-.37-2.7-6.02-10.64-16.68-21.08-22.31-31.61-2.24-4.19-2.77-5.89-.5-10.28l21.65-29.78c.94-1.62-3.35-1.92-4.51-1.99-12.15-.68-13,6.14-18.42,14.03-1.18,1.72-8.24,11.43-9.56,11.43-3.82,0-12.67-24.41-22.48-25.46-3.46-.37-6.48.68-9.75,1.5l22.5,31.65c1.74,3.06,1.92,4.08.2,7.22-5.09,9.33-14.87,20.55-21.11,29.81-.59.87-4.03,5.64-3.59,6.14h0ZM356.79,177.6h-4.5v33.92h4.5v-17.21c0-.19,2.41-2.47,2.81-2.68,2.16-1.11,7.18-.45,7.18,2.18v17.71h4.5v-18.71c0-.51-1.27-2.7-1.73-3.26-3.29-3.96-9.13-2.83-12.76.02v-11.97h0ZM162.08,181.41c0-1.44-1.17-2.6-2.6-2.6s-2.6,1.16-2.6,2.6,1.17,2.6,2.6,2.6,2.6-1.16,2.6-2.6ZM21.01,179.1H1.27l-.75.75v31.68h20.24c1.17-.97,1.12-3.1,0-3.99H5.02v-10.48h13.99v-3.99H5.02v-9.98h15.99v-3.99h0ZM444.23,211.53v-23.45l15.24,22.95c1.01.84,4.26.92,5.24-.25v-30.93c-1.07-1.18-3.92-1.18-5,0v23.2l-15.47-23.22c-1.09-1.15-3.1-.87-4.55-.51l-.47,30.96.82,1.18,4.18.07h.01ZM329.81,191.07v15.22c0,.58,1.45,3.99,1.98,4.51,1.55,1.52,5.81,1.81,7.53.4l-.02-3.16c-.31-.31-3.87.65-4.5-.75v-16.21h4v-3.49h-4l-.22-5.52c-.53-.76-4.34-.89-4.71.35l-.07,5.17h-4v3.49h4.01,0ZM545.17,191.07v15.71c0,.18.87,2.59,1.07,2.93,1.58,2.72,5.71,2.81,8.36,1.74l.07-3.42c-.32-.32-5,1.12-5-2.24v-14.72h4.5v-3.49h-4.5v-5.99l-4.03.22-.47,5.77h-4v3.49h4ZM65.98,187.58v32.93h4v-10.48c2.48,1.15,3.84,2.08,6.75,2.03,8.94-.17,10.13-9.5,9.11-16.62-1.14-7.96-9.75-10.96-15.85-5.87v-2h-4.01ZM119.44,201.05c1.8-19.65-22.9-18.36-20.43,1.69,1.22,9.91,14.14,12.7,19.89,4.97l-2.2-2.18c-5.11,4.42-13.25,3.17-13.25-4.48h15.99ZM132.93,187.58v23.95h4v-16.71c0-2.18,5.49-4.43,7.49-3.24v-4.49c-2.72-.21-5.47.32-7.24,2.49l-.24-2h-4.01ZM196.39,201.05c2.2-17.99-20.76-18.83-21.03-1.24-.18,11.52,13.2,16.82,20.49,7.91.17-.91-1.89-2.19-2.73-2.17-4.82,4.66-13.13,2.89-12.73-4.5h16,0ZM223.87,193.32c.86,4.97-.64,12.22,0,17.46,0,.9,4.51,1.36,4.93-.07-.54-8.08,3.54-25.2-9.63-23.58-2.07.25-3.73,1.37-5.04,2.95l-.24-2.49h-4.5v23.95h4.5v-17.21c0-.18,2.16-2.24,2.52-2.47,2.05-1.28,7.02-1.15,7.47,1.47h0ZM258.41,196l4.22-.42c-.8-9.44-13.41-11.49-18.49-3.97-2.49,3.69-2.58,11.88-.2,15.6,4.97,7.79,16.62,5.91,18.88-2.88-4.73-3.41-4.3,3.04-8.24,3.67-7.27,1.17-8.32-4.97-7.74-10.72.78-7.74,10.09-8.81,11.57-1.28ZM295.33,201.05c1.62-19.99-23.24-18.28-20.44,2.2,1.27,9.31,14.62,12.09,19.91,4.46l-2.2-2.18c-5.19,4.4-13.21,3.3-13.25-4.48h15.99,0ZM389.27,201.05h15.74c1.44,0,.24-5.79-.09-6.89-1.3-4.33-4.79-7.13-9.4-7.12-14,.04-15.36,26.46,1.99,24.98,2.03-.17,8.81-2.59,7.01-5.49-2.51-2.48-3.65.88-6.13,1.39-5.35,1.11-8.47-1.76-9.13-6.87h.01ZM483.21,201.05h15.74c1.22,0,.36-5.13.12-6.11-1.14-4.7-4.64-7.91-9.62-7.9-14,.04-15.42,26.46,1.99,24.98,2.67-.23,7.75-2.14,7.15-5.39-2.92-2.55-3.58.73-6.26,1.29-5.33,1.1-8.64-1.63-9.13-6.87h.01ZM37.92,187.66l-4.92-.08c-.89.86,6.53,9.97,6.98,11.72l-7.47,12.22,5-.24,5.24-8.23c.57,0,4.11,7.53,5.25,8.22s3.62.05,4.99.25c.71-.61-7.37-10.43-7.5-11.75-.21-2.14,7.86-11.4,7-12.19l-4.89.1-4.85,7.87s-4.83-7.89-4.83-7.89ZM157.42,187.58v23.95h4v-23.95h-4ZM516.1,187.66l-4.92-.08c-.89.86,6.53,9.97,6.98,11.72l-7.47,12.22c1.38-.2,3.85.44,4.99-.25,1.21-.72,3.78-6.91,5.25-8.22.6,0,4.23,7.61,5.25,8.22,1.14.69,3.61.05,4.99.25l-7.46-12.22,6.96-11.72-4.89.1-4.85,7.87-4.83-7.89Z"/>
      <path class="cls-6" d="M624.11,13.47l17.16-.08c2.72-4.17,4-9.03,8.98-11.48,9.87-4.86,19.47,3.02,19.85,13.3.08,2.22-.87,4.32-.3,6.27s7.7,9.25,9.6,10.38c7.16,4.25,15.09-2.35,21.07,7.4,3.88,6.33.96,10.26,2.99,15.97,1.78,4.98,7.91,10.39,13.34,10.53,1.13.03,2.51-.48,4.01-.43,6.94.27,13.51,5.04,14.22,12.25.3,3.04-1,5.92-.39,8.87.76,3.69,8.04,10.97,11.74,11.72,5.32,1.08,8.03-1.96,13.78,1.21,9.96,5.49,9.58,20.61-.7,25.55-5.84,2.81-10.51.1-17.18,5.3-10.92,8.51-4.06,19.36-13,25.93-5.35,3.93-8.45,1.97-13.99,1.96-4.27,0-12.19,8.42-13.02,12.48-.77,3.76.78,6.98.16,10.64-.77,4.53-6.18,9.18-10.67,9.8-6.16.86-10.35-3.4-15.7,1.29-1.58,1.38-2.65,3.2-4.25,4.73-1.95,1.87-3.8,1.13-3.22,5.21.17,1.17,1.06,2.04,1.34,3.17,2.1,8.28-2.86,15-10.35,18.07h-7c-5.25-1.96-9.54-6.49-10.99-11.97-.19-.71-.54-2.35-.5-2.99.15-2.47,4.62-9.4,6.83-10.89,8.57-5.77,16.15,3.53,24.64-7.33,2.55-3.26,5.07-9.74-.12-11.83-1.91-.77-13.24-.61-15.36.12v-2c1.7.23,14.6.19,15.49-.25,4.74-7.27,7.11-14.93,17.68-13.67,4.35.52,6.17,4.08,10.55.94.94-.68,7.1-6.4,7.76-7.22,4.46-5.61-6.97-9.89-11.26-10.23-3.01-.24-8.84.31-11.22,2.25-1.29,1.06-1.69,2.94-2.82,4.17-3.6,3.92-10.7,4.09-14.94,1.05-2.28-1.64-3.84-5.11-6.07-6.41-3.55-2.06-9.77-2.08-13.34,0-3,1.75-4.1,5.79-8.58,5.94-11.22.37-12.59-15.79-.85-17.38,6.04-.82,6.21,5.52,10.25,7.49,2.08,1.01,9.31,1.31,11.59.88s3.67-4.65,5.05-6.43c3.21-4.14,7.64-5.81,12.7-3.78,1.27.51,5.13,3.56,6.01,4.62s2.05,4.33,3.11,4.77c2.25.95,3.72-.25,5.63-.21,2.96.07,5.75.95,8.95.5,4.78-.68,5.61-6.37,8.59-9.38,2.37-2.39,6.5-4.25,9.92-4.05,5.26.3,8.38,5.26,13.51,1.5.92-.67,6.05-5.84,6.37-6.61,1-2.44-1.09-9.93-3.37-10.35-5.06-.94-13.02.63-18.41.08-.68.22-2.08,3.23-2.84,4.15-4.82,5.9-13.12,5.88-17.96,0-2.12-2.57-.97-3.76-4.82-4.16-4.28-.45-9,.2-13.33-.07-3.39,5.34-10.11,8.87-14.84,2.75-5.35-6.91,2.44-18.26,11.46-11.94,3.12,2.18,4.05,5.19,8.77,5.71,2.13.23,8.65-.41,10.39-1.48.36-.22,1.32-3.25,1.93-4.17,3.5-5.29,12.7-6.46,17.17-1.85,1.32,1.36,1.88,3.6,3.25,4.74,5.19,4.29,20.12,4.04,22.58-3.36,1.57-4.71-2.15-6.22-4.88-8.83-1.6-1.53-2.18-3.6-4.72-4.27-4.39-1.17-8.29,4.14-15.15,1.66-3.8-1.38-9.09-8.14-10.35-11.87-.39-1.14-.27-2.43,0-3.49.68-2.73,4.06-6.51,3.3-9-.47-1.52-8.84-10.32-10.28-10.76s-4.91,1.99-7,2.55c-4.62,1.24-9.07.39-12.73-2.76-3.85-3.31-3.73-8.32-9.5-8.97-3.06-.34-11-.39-14.02-.03-2.08.25-2.37,2.65-3.73,4.26-4.4,5.22-10.3,7.31-16.23,2.75-.96-.74-5.01-6.1-5.25-6.98-.11-.38-.09-2.55,0-2.99.29-1.38,3.41-6.66,4.55-7.68,3.33-2.99,9.74-3.46,13.62-1.22s3.47,6.55,8.47,8.51c5.44,2.13,11.29.28,16.75-.69.61-4.72,5.2-5.44,1.79-10.34-.59-.85-7.68-8.03-8.21-8.27-2.49-1.14-7.06,1.83-9.78,2.19-10.05,1.34-12.14-3.84-16.2-11.43-.27-.5-.15-1.85-.83-2.02-5.08.28-11.45.99-16.29-1-.57-.23-.32-.95-.37-.98v-.03h.01Z"/>
      <path class="cls-8" d="M0,57.87c1.47-2.26,7.16-3.04,9.74-3.03,2.39,0,5.44,1.18,7.01,3.02,17.35,24.24,32.41,51.34,50.1,75.2,1.05,1.42,2.04,2.92,3.36,4.12.96-.79,1.31-2,1.27-3.21l.02-74.31c.48-4.67,5.39-4.83,9.17-4.25,3.47.53,4.04,3.13,4.3,6.19.68,8.06-.47,16.44-.54,24.44-.19,21.95-.48,44.49,0,66.4.05,2.14,1.23,5.83.28,7.72-1.1,2.19-14.52,3.35-16-1L16.53,80.69l-1.71-.81c-1.19.68-1.22,1.96-1.33,3.16-1.88,20.69,1.03,44.92.54,65.86.15,9.23,1.08,14.49-10.23,12.71-1.84-.29-2.4-1.36-3.04-2.95-.53-31.82-.13-63.75-.2-95.61L0,61.36v-3.49H0Z"/>
      <path class="cls-8" d="M349.19,54.03c15.59-1.5,35.01,1.46,44.78,14.86,1.94,2.66,7.18,12.66,6.22,15.58-.37,1.14-8.32,3.62-9.94,3.11-2.41-.75-4.8-8.62-6.76-11.23-6.99-9.29-21.69-13.27-32.82-11.38-40.96,6.95-44.86,75.8-3.47,85.53,11.53,2.71,27.09-.12,37.03-6.63,6.28-4.11,6.58-9.33,6.03-16.41-.25-3.23-.31-7.3-4.23-7.75-8.04-.93-17.67.8-25.89-.09-3.37-.98-3.65-11.15.87-11.4l40.25.27c1.24.9,1.39,2.04,1.52,3.47.75,8.29.58,23.06,0,31.47-.35,5.04-3.83,6.7-7.76,9.22-28.8,18.48-76.15,13.9-87.33-22.58-10.08-32.88,3.56-72.41,41.5-76.06v.02h0Z"/>
      <path class="cls-7" d="M452.12,82.97c20.45-1.56,35.37,14.96,36.6,34.5.17,2.64.85,8.65-2.28,9.24l-53.23.23c-3.84,1.27-.49,10.56.79,13.24,5.15,10.85,19.49,16.49,30.56,11.07,7.08-3.46,7.57-12,15.96-13,10.13-1.22,7.36,4.3,3.78,10.26-4.86,8.08-12.4,12.44-21.47,14.48-53,11.94-62.29-76.09-10.7-80.02h0ZM450.11,93.92c-4.65.63-10.45,3.97-13.36,7.62-2.66,3.34-7.97,13.88-.77,14.72,11.28-.61,23.32.77,34.51.01,6.3-.43,5.22-4.63,3.47-9.49-3.52-9.75-13.93-14.2-23.84-12.85h-.01Z"/>
      <path class="cls-2" d="M171.78,139.32c1.8,1.91-.87,6.07-1.96,8.01-7.44,13.2-22,17.81-36.57,15.75-24.95-3.51-32.91-25.36-29.72-48.02,5.75-40.83,60.69-43.55,69.56-2.73.73,3.35,2.44,13.8-2.39,14.41h-51.96c-4.01.66-2.7,4.07-2.03,6.96,3.41,14.7,18.51,24.92,32.89,17.37,7.91-4.15,7.57-13.72,18.6-12.91.98.07,2.95.47,3.59,1.15h0ZM135.32,93.93c-7.55.91-14.97,6.91-17.4,14.06-1.09,3.21-2.46,7.87,2.26,8.26,11.6-.82,24.58,1.05,36.01.01,5.82-.53,3.5-6.69,1.97-10.49-3.82-9.44-13.1-13.02-22.84-11.84Z"/>
      <path class="cls-7" d="M556.29,161.01c-.51-.48-1.05-2.33-1.14-3.1-1.69-15.19,1.35-33.44.03-48.92s-16.6-18.76-28.16-11.62c-6.23,3.85-8.37,10.05-8.85,17.1-1,14.55.87,30.15-.08,44.82-.84,2.87-7.26,2.7-9.61,2.32-2.84-.46-3.09-2.76-3.29-5.19-1.78-21.23,1.38-44.9,0-66.39-.39-5.39,6.45-6.63,10.04-4,2.85,2.09.6,6.3,1.98,9.25l4.26-4.47c15.65-13.35,44.26-9.54,46.2,14.21,1.13,13.77-.23,29.82-.01,43.91.04,2.44,1.84,11.66-1.33,12.6-1.3.39-9.13.3-10.02-.53h-.02Z"/>
      <path class="cls-6" d="M182.9,161.14c-.44-.5,3-5.27,3.59-6.14,6.24-9.26,16.02-20.47,21.11-29.81,1.72-3.15,1.54-4.16-.2-7.22l-22.5-31.65c3.27-.82,6.29-1.87,9.75-1.5,9.81,1.05,18.66,25.46,22.48,25.46,1.32,0,8.38-9.71,9.56-11.43,5.41-7.89,6.27-14.71,18.42-14.03,1.16.07,5.45.37,4.51,1.99l-21.65,29.78c-2.27,4.4-1.74,6.09.5,10.28,5.63,10.52,16.29,20.97,22.31,31.61.49.7.91,1.95.37,2.7-.45.61-6.8,1-7.97.9-8.27-.69-9.83-7.1-13.6-12.87-2.72-4.17-6.91-11.56-9.99-14.97-1.96-2.17-2.48-2.15-4.41,0-4.46,4.99-8.75,13.82-12.39,19.56-4.99,7.88-10.8,9.52-19.89,7.33h0Z"/>
      <path class="cls-5" d="M258.47,85.92c3.11-2.25,8.26,1.48,8.88-3.85s-.72-10.96.32-16.1c2.8-1.58,8.79-8.78,11.94-5.63,1.69,1.68.25,4.7.2,6.74-.08,3.57-.55,12.67,1.08,15.43,2.12,3.58,10.17.95,11.67,4.31.95,2.11.71,7.13-2.1,7.86-6.24,1.63-9.97-1.41-10.65,7.33-.85,10.92-.66,27.91,0,38.95.14,2.3.4,6.92,1.99,8.49,2.71,2.65,9.52-.3,11.45,3.53.46.9,1.15,5.38,1.06,6.37-.25,2.84-3.88,3.09-6.25,3.28-8.87.73-19.47-1.72-20.25-12.2l-.51-52.87c-.75-4.76-6.46-1.47-8.49-3.5-1.52-1.51-1.25-6.26-.35-8.14h0Z"/>
      <path class="cls-1" d="M706.06,81.82c-5.52.94-15.33-2.13-19.5,1.73-1.41,1.3-2.52,3.35-4.22,4.77-8.62,7.2-15.03.68-19.59-6.95l-14.32.43c-2.02,4.28-4.46,7-9.58,6.51-11.25-1.08-9.92-18.99,2.88-16.84,5.33.89,6.18,6.95,7.18,7.29h13.84c.98-.35,1.72-3.37,2.43-4.58,5.68-9.71,19.58-6.55,21.44,4.09l19.44.05c-.27,1.06-.39,2.36,0,3.49h0Z"/>
      <path class="cls-9" d="M641.1,208.53c-.04.65.31,2.28.5,2.99-5.11.68-12.86-.97-17.63.11-3.28.74-5.82,7.83-11.22,8.75-10.03,1.72-11.44-9.45-20.89-9.87-8.51-.38-11.28,8.82-19.75,6.79-2.77-.66-5.68-4.82-5.84-7.64-.33-5.95,7.65-11.46,12.85-7.84,1.58,1.1,2.28,3.38,3.74,4.74,3.77,3.52,9.2,1.25,13.79,2.26,3.52-.55,4.41-8.96,10.06-10.42s10.31.15,13.41,4.88c.69,1.06,2.23,4.99,2.8,5.18l18.17.07h.01Z"/>
      <path class="cls-11" d="M641.6,17.46c-1.58-.09-3.19.14-4.77.02-.64-.05-1.31-.52-1.48-.52h-12.99c-3.83,6.64-7.96,12.04-16.41,8.41-5.77-2.48-5.75-8.25-14.07-8.9-8.98-.7-11.96,7.44-17.98,7.01-8.02-.57-10-12.67-2.93-15.93,6.4-2.94,10.61,1.73,13.5,6.83.91.31,11.08.25,12.31-.03,2.83-.63,2.95-3.45,4.13-5.35,4.66-7.51,14.58-7.15,19.33.1.58.89,1.78,4.15,1.97,4.28.5.33,1.61-.07,1.9.08.05.02-.2.75.37.98,4.84,1.99,11.21,1.27,16.29,1,.68.16.57,1.52.83,2.02h0Z"/>
      <path class="cls-1" d="M657.09,176.6v2c-5.59,1.92-5.97,8.46-11.22,10-3.79,1.11-7.14-.59-10.03-3-2.7-2.25-4.11-5.86-8.01-6.47-3.36-.52-7.87.24-11.37.06-2.17,1.92-2.59,4.22-5.5,5.49-6.89,3-12.5-2.21-11.86-9.35.53-5.89,9.29-9.2,13.77-5.22,1.29,1.15,2.64,5.09,3.57,5.41,3.65-.19,8.28.6,11.79-.04s6.04-6.19,9.2-8.28c5.59-3.71,10.95-1.13,14.66,3.66,1.61,2.08,2.05,5.34,5,5.74h0Z"/>
      <path class="cls-3" d="M444.23,211.53l-4.18-.07-.82-1.18.47-30.96c1.45-.36,3.46-.64,4.55.51l15.47,23.22v-23.2c1.07-1.18,3.92-1.18,5,0v30.93c-.99,1.16-4.23,1.09-5.24.25l-15.24-22.95v23.45h-.01Z"/>
      <path class="cls-3" d="M21.01,179.1v3.99H5.02v9.98h13.99v3.99H5.02v10.48h15.74c1.12.89,1.17,3.03,0,3.99H.52v-31.68l.75-.75h19.74Z"/>
      <path class="cls-3" d="M65.98,187.58h4v2c6.1-5.09,14.71-2.1,15.85,5.87,1.02,7.12-.17,16.45-9.11,16.62-2.92.05-4.27-.88-6.75-2.03v10.48h-4v-32.93h.01ZM73.33,191.18c-1.33.3-2.95,1.91-3.25,3.24s-.35,9.58,0,10.77c.79,2.72,5.17,3.28,7.54,2.74,6-1.36,6.84-19.27-4.29-16.75h0Z"/>
      <path class="cls-3" d="M356.79,177.6v11.97c3.62-2.85,9.47-3.98,12.76-.02.47.56,1.73,2.75,1.73,3.26v18.71h-4.5v-17.71c0-2.63-5.02-3.29-7.18-2.18-.4.21-2.81,2.49-2.81,2.68v17.21h-4.5v-33.92h4.5,0Z"/>
      <path class="cls-3" d="M196.39,201.05h-15.99c-.4,7.38,7.91,9.16,12.73,4.5.83-.02,2.89,1.26,2.73,2.17-7.29,8.91-20.67,3.61-20.49-7.91.27-17.59,23.22-16.74,21.03,1.24h0ZM191.9,197.06c-.42-8.27-11.01-7.99-11.49,0h11.49Z"/>
      <path class="cls-3" d="M295.33,201.05h-15.99c.04,7.78,8.06,8.88,13.25,4.48l2.2,2.18c-5.29,7.62-18.63,4.84-19.91-4.46-2.8-20.48,22.06-22.19,20.44-2.2h0ZM290.83,197.06c-.23-8.33-10.62-7.82-11.49,0h11.49Z"/>
      <path class="cls-3" d="M389.27,201.05c.66,5.11,3.78,7.98,9.13,6.87,2.48-.51,3.61-3.87,6.13-1.39,1.8,2.89-4.99,5.31-7.01,5.49-17.35,1.48-15.99-24.94-1.99-24.98,4.61,0,8.1,2.79,9.4,7.12.33,1.1,1.53,6.89.09,6.89h-15.75ZM401.26,197.06c-.63-8.32-11.14-8.11-11.49,0h11.49Z"/>
      <path class="cls-3" d="M483.21,201.05c.49,5.24,3.8,7.97,9.13,6.87,2.69-.56,3.34-3.84,6.26-1.29.6,3.25-4.48,5.16-7.15,5.39-17.41,1.48-15.99-24.94-1.99-24.98,4.97,0,8.48,3.2,9.62,7.9.24.98,1.1,6.11-.12,6.11h-15.75ZM494.7,197.06c.41-8.42-10.9-7.98-10.99,0h10.99Z"/>
      <path class="cls-3" d="M119.44,201.05h-15.99c0,7.66,8.14,8.91,13.25,4.48l2.2,2.18c-5.75,7.72-18.67,4.93-19.89-4.97-2.47-20.05,22.23-21.34,20.43-1.69h0ZM114.95,197.06c-.26-8.27-10.48-7.91-11.49,0h11.49Z"/>
      <path class="cls-10" d="M630.61,46.4c-.09.44-.11,2.61,0,2.99l-14.16.08c-3.81,4.8-8.1,9.21-14.09,4.42-8.34-6.68.16-18.91,9.11-14.08,2.76,1.49,3.65,5.22,7.03,6.46,4.03,1.47,7.94-.36,12.11.13Z"/>
      <path class="cls-3" d="M223.87,193.32c-.45-2.63-5.42-2.76-7.47-1.47-.37.23-2.52,2.3-2.52,2.47v17.21h-4.5v-23.95h4.5l.24,2.49c1.31-1.57,2.97-2.69,5.04-2.95,13.17-1.62,9.09,15.5,9.63,23.58-.42,1.43-4.93.97-4.93.07-.64-5.24.86-12.49,0-17.46h0Z"/>
      <path class="cls-3" d="M258.41,196c-1.48-7.53-10.8-6.46-11.57,1.28-.58,5.75.47,11.89,7.74,10.72,3.94-.64,3.51-7.09,8.24-3.67-2.25,8.78-13.9,10.67-18.88,2.88-2.38-3.72-2.29-11.91.2-15.6,5.07-7.52,17.69-5.46,18.49,3.97l-4.22.42Z"/>
      <path class="cls-3" d="M516.1,187.66l4.83,7.89,4.85-7.87,4.89-.1-6.96,11.72,7.46,12.22c-1.38-.2-3.85.44-4.99-.25-1.02-.61-4.65-8.22-5.25-8.22-1.47,1.31-4.04,7.49-5.25,8.22-1.14.69-3.61.05-4.99.25l7.47-12.22c-.45-1.74-7.86-10.86-6.98-11.72l4.92.08Z"/>
      <path class="cls-3" d="M37.92,187.66l4.83,7.89,4.85-7.87,4.89-.1c.87.79-7.2,10.05-7,12.19.13,1.32,8.21,11.14,7.5,11.75-1.37-.2-3.85.44-4.99-.25s-4.67-8.23-5.25-8.22l-5.24,8.23-5,.24,7.47-12.22c-.45-1.74-7.86-10.86-6.98-11.72,0,0,4.92.08,4.92.08Z"/>
      <path class="cls-3" d="M329.81,191.07h-4v-3.49h4l.07-5.17c.37-1.24,4.18-1.11,4.71-.35l.22,5.52h4v3.49h-4v16.21c.62,1.4,4.19.43,4.5.75l.02,3.16c-1.72,1.41-5.98,1.12-7.53-.4-.53-.52-1.98-3.92-1.98-4.51v-15.22h0Z"/>
      <path class="cls-3" d="M545.17,191.07h-4v-3.49h4l.47-5.77,4.03-.22v5.99h4.5v3.5h-4.5v14.72c0,3.36,4.68,1.92,5,2.24l-.07,3.42c-2.65,1.07-6.77.98-8.36-1.74-.2-.34-1.07-2.75-1.07-2.93v-15.71h0Z"/>
      <path class="cls-3" d="M132.93,187.58h4l.24,1.99c1.78-2.17,4.53-2.71,7.25-2.49v4.49c-2.01-1.19-7.5,1.06-7.5,3.24v16.71h-4v-23.95h0Z"/>
      <rect class="cls-3" x="157.42" y="187.58" width="4" height="23.95"/>
      <circle class="cls-3" cx="159.48" cy="181.41" r="2.6"/>
    </g>
  </g>
</svg>